<?xml version="1.0" encoding="utf-8"?>
<!-- Generator: Adobe Illustrator 23.0.2, SVG Export Plug-In . SVG Version: 6.00 Build 0)  -->
<svg version="1.1" id="Layer_1" xmlns="http://www.w3.org/2000/svg" xmlns:xlink="http://www.w3.org/1999/xlink" x="0px" y="0px"
	 viewBox="0 0 145.1 20" style="enable-background:new 0 0 145.1 20;" xml:space="preserve">
<style type="text/css">
	.st0{clip-path:url(#SVGID_2_);fill:#3CC68A;}
	.st1{clip-path:url(#SVGID_4_);fill:#555555;}
	.st2{enable-background:new    ;}
	.st3{fill:#010101;}
	.st4{fill:#FFFFFF;}
	.st5{fill:url(#SVGID_5_);}
</style>
<g>
	<g>
		<g>
			<g>
				<g>
					<defs>
						<path id="SVGID_1_" d="M3,0h46h41.2h51.9c1.7,0,3,1.3,3,3v14c0,1.7-1.3,3-3,3H90.7h-41H3c-1.7,0-3-1.3-3-3V3C0,1.3,1.3,0,3,0z
							"/>
					</defs>
					<clipPath id="SVGID_2_">
						<use xlink:href="#SVGID_1_"  style="overflow:visible;"/>
					</clipPath>
					<path class="st0" d="M51,0h94.1v20H51V0z"/>
				</g>
			</g>
		</g>
		<g>
			<g>
				<g>
					<defs>
						<path id="SVGID_3_" d="M3,0h46h41.2h51.9c1.7,0,3,1.3,3,3v14c0,1.7-1.3,3-3,3H90.7h-41H3c-1.7,0-3-1.3-3-3V3C0,1.3,1.3,0,3,0z
							"/>
					</defs>
					<clipPath id="SVGID_4_">
						<use xlink:href="#SVGID_3_"  style="overflow:visible;"/>
					</clipPath>
					<path class="st1" d="M0,0h51v20H0V0z"/>
				</g>
			</g>
		</g>
	</g>
	<g>
		<g class="st2">
			<path class="st3" d="M12.5,15h-1v-0.6c-0.3,0.3-0.6,0.4-0.9,0.6s-0.7,0.2-1,0.2c-0.7,0-1.3-0.3-1.7-0.8C7.4,13.8,7.2,13,7.2,12
				c0-0.5,0.1-1,0.2-1.4s0.3-0.7,0.6-1C8.3,9.4,8.5,9.2,8.9,9c0.3-0.1,0.7-0.2,1-0.2s0.6,0,0.8,0.1s0.5,0.2,0.8,0.3V6.6h1V15z
				 M11.5,13.5v-3.4C11.2,10,11,9.9,10.8,9.8c-0.2,0-0.4-0.1-0.7-0.1c-0.6,0-1,0.2-1.3,0.6s-0.5,1-0.5,1.7s0.1,1.3,0.4,1.6
				c0.2,0.4,0.6,0.6,1.2,0.6c0.3,0,0.6-0.1,0.9-0.2S11.2,13.7,11.5,13.5z"/>
			<path class="st3" d="M15.6,8h-1.1V7h1.1V8z M15.5,15h-1V9h1V15z"/>
			<path class="st3" d="M21.8,13.3c0,0.5-0.2,1-0.7,1.3c-0.5,0.4-1.1,0.5-1.9,0.5c-0.4,0-0.9-0.1-1.2-0.2c-0.4-0.1-0.7-0.2-0.9-0.3
				v-1.1h0.1c0.3,0.2,0.7,0.4,1.1,0.6s0.8,0.2,1.1,0.2c0.4,0,0.8-0.1,1-0.2s0.4-0.4,0.4-0.7c0-0.2-0.1-0.4-0.2-0.5s-0.4-0.2-0.8-0.3
				c-0.1,0-0.3-0.1-0.6-0.1c-0.2,0-0.4-0.1-0.6-0.1c-0.5-0.1-0.9-0.3-1.1-0.6s-0.3-0.6-0.3-1c0-0.2,0.1-0.5,0.2-0.7s0.3-0.4,0.5-0.6
				c0.2-0.2,0.5-0.3,0.8-0.4C19,9,19.4,9,19.7,9c0.4,0,0.7,0,1.1,0.1s0.7,0.2,0.9,0.3v1.1h-0.1c-0.3-0.2-0.6-0.4-0.9-0.5
				S20,9.8,19.6,9.8s-0.7,0.1-0.9,0.2s-0.4,0.4-0.4,0.6c0,0.2,0.1,0.4,0.2,0.6c0.2,0.1,0.4,0.2,0.7,0.3c0.2,0,0.4,0.1,0.6,0.1
				s0.4,0.1,0.6,0.1c0.5,0.1,0.8,0.3,1.1,0.6C21.7,12.5,21.8,12.8,21.8,13.3z"/>
			<path class="st3" d="M27.7,14.6c-0.3,0.2-0.7,0.3-1,0.4c-0.3,0.1-0.6,0.1-1,0.1s-0.8-0.1-1.2-0.2s-0.7-0.3-0.9-0.6
				c-0.3-0.3-0.5-0.6-0.6-1s-0.2-0.9-0.2-1.4c0-1,0.3-1.8,0.8-2.3c0.5-0.6,1.3-0.8,2.1-0.8c0.3,0,0.7,0,1,0.1s0.6,0.2,0.9,0.4v1.1
				h-0.1c-0.3-0.2-0.6-0.4-1-0.6c-0.3-0.1-0.6-0.2-1-0.2c-0.6,0-1,0.2-1.4,0.6c-0.3,0.4-0.5,1-0.5,1.7s0.2,1.3,0.5,1.7
				s0.8,0.6,1.4,0.6c0.2,0,0.4,0,0.6-0.1s0.4-0.1,0.6-0.2c0.1-0.1,0.3-0.2,0.4-0.2s0.2-0.2,0.3-0.2h0.1v1.1H27.7z"/>
			<path class="st3" d="M33.9,15h-1v-0.7c-0.3,0.3-0.7,0.5-1,0.6s-0.7,0.2-1,0.2c-0.6,0-1.1-0.2-1.5-0.6s-0.5-0.9-0.5-1.7V9h1v3.4
				c0,0.3,0,0.6,0,0.8s0.1,0.4,0.2,0.6c0.1,0.2,0.2,0.3,0.4,0.3s0.4,0.1,0.7,0.1c0.3,0,0.5-0.1,0.9-0.2c0.3-0.1,0.6-0.3,0.9-0.5V9h1
				v6H33.9z"/>
			<path class="st3" d="M40.2,13.3c0,0.5-0.2,1-0.7,1.3c-0.5,0.4-1.1,0.5-1.9,0.5c-0.4,0-0.9-0.1-1.2-0.2c-0.4-0.1-0.7-0.2-0.9-0.3
				v-1.1h0.1c0.3,0.2,0.7,0.4,1.1,0.6s0.8,0.2,1.1,0.2c0.4,0,0.8-0.1,1-0.2s0.4-0.4,0.4-0.7c0-0.2-0.1-0.4-0.2-0.5s-0.4-0.2-0.8-0.3
				c-0.1,0-0.3-0.1-0.6-0.1c-0.2,0-0.4-0.1-0.6-0.1c-0.5-0.1-0.9-0.3-1.1-0.6c-0.2-0.3-0.3-0.6-0.3-1c0-0.2,0.1-0.5,0.2-0.7
				c0.1-0.2,0.3-0.4,0.5-0.6c0.2-0.2,0.5-0.3,0.8-0.4C37.4,9,37.8,9,38.1,9c0.4,0,0.7,0,1.1,0.1c0.4,0.1,0.7,0.2,0.9,0.3v1.1H40
				c-0.3-0.2-0.6-0.4-0.9-0.5S38.4,9.8,38,9.8c-0.4,0-0.7,0.1-0.9,0.2s-0.4,0.4-0.4,0.6c0,0.2,0.1,0.4,0.2,0.6
				c0.2,0.1,0.4,0.2,0.7,0.3c0.2,0,0.4,0.1,0.6,0.1c0.2,0,0.4,0.1,0.6,0.1c0.5,0.1,0.8,0.3,1.1,0.6C40.1,12.5,40.2,12.8,40.2,13.3z"
				/>
			<path class="st3" d="M45.9,13.3c0,0.5-0.2,1-0.7,1.3c-0.5,0.4-1.1,0.5-1.9,0.5c-0.4,0-0.9-0.1-1.2-0.2c-0.4-0.1-0.7-0.2-0.9-0.3
				v-1.1h0.1c0.3,0.2,0.7,0.4,1.1,0.6s0.8,0.2,1.1,0.2c0.4,0,0.8-0.1,1-0.2s0.4-0.4,0.4-0.7c0-0.2-0.1-0.4-0.2-0.5s-0.4-0.2-0.8-0.3
				c-0.1,0-0.3-0.1-0.6-0.1c-0.2,0-0.4-0.1-0.6-0.1c-0.5-0.1-0.9-0.3-1.1-0.6c-0.2-0.3-0.3-0.6-0.3-1c0-0.2,0.1-0.5,0.2-0.7
				c0.1-0.2,0.3-0.4,0.5-0.6c0.2-0.2,0.5-0.3,0.8-0.4C43.1,9,43.5,9,43.8,9c0.4,0,0.7,0,1.1,0.1c0.4,0.1,0.7,0.2,0.9,0.3v1.1h-0.1
				c-0.3-0.2-0.6-0.4-0.9-0.5S44,9.7,43.6,9.7s-0.7,0.1-0.9,0.2s-0.4,0.4-0.4,0.6c0,0.2,0.1,0.4,0.2,0.6c0.2,0.1,0.4,0.2,0.7,0.3
				c0.2,0,0.4,0.1,0.6,0.1c0.2,0,0.4,0.1,0.6,0.1c0.5,0.1,0.8,0.3,1.1,0.6C45.8,12.5,45.9,12.8,45.9,13.3z"/>
		</g>
		<g class="st2">
			<path class="st4" d="M12.5,14h-1v-0.6c-0.3,0.3-0.6,0.4-0.9,0.6s-0.7,0.2-1,0.2c-0.7,0-1.3-0.3-1.7-0.8C7.4,12.8,7.2,12,7.2,11
				c0-0.5,0.1-1,0.2-1.4C7.6,9.3,7.8,9,8,8.7C8.3,8.4,8.5,8.2,8.9,8c0.3-0.1,0.7-0.2,1-0.2s0.6,0,0.8,0.1s0.5,0.2,0.8,0.3V5.6h1V14z
				 M11.5,12.5V9.1C11.2,9,11,8.9,10.8,8.8c-0.2,0-0.4-0.1-0.7-0.1C9.5,8.8,9,9,8.7,9.3s-0.5,1-0.5,1.7s0.1,1.3,0.4,1.6
				c0.2,0.4,0.6,0.6,1.2,0.6c0.3,0,0.6-0.1,0.9-0.2S11.2,12.7,11.5,12.5z"/>
			<path class="st4" d="M15.6,7h-1.1V6h1.1V7z M15.5,14h-1V8h1V14z"/>
			<path class="st4" d="M21.8,12.3c0,0.5-0.2,1-0.7,1.3c-0.5,0.4-1.1,0.5-1.9,0.5c-0.4,0-0.9-0.1-1.2-0.2c-0.4-0.1-0.7-0.2-0.9-0.3
				v-1.1h0.1c0.3,0.2,0.7,0.4,1.1,0.6s0.8,0.2,1.1,0.2c0.4,0,0.8-0.1,1-0.2s0.4-0.4,0.4-0.7c0-0.2-0.1-0.4-0.2-0.5s-0.4-0.2-0.8-0.3
				c-0.1,0-0.3-0.1-0.6-0.1c-0.2,0-0.4-0.1-0.6-0.1c-0.5-0.1-0.9-0.3-1.1-0.6s-0.3-0.6-0.3-1c0-0.2,0.1-0.5,0.2-0.7s0.3-0.4,0.5-0.6
				c0.2-0.2,0.5-0.3,0.8-0.4C19,8,19.4,8,19.7,8c0.4,0,0.7,0,1.1,0.1c0.4,0.1,0.7,0.2,0.9,0.3v1.1h-0.1C21.3,9.3,21,9.1,20.7,9
				S20,8.8,19.6,8.8S18.9,8.9,18.7,9s-0.4,0.4-0.4,0.6c0,0.2,0.1,0.4,0.2,0.6c0.2,0.1,0.4,0.2,0.7,0.3c0.2,0,0.4,0.1,0.6,0.1
				s0.4,0.1,0.6,0.1c0.5,0.1,0.8,0.3,1.1,0.6C21.7,11.5,21.8,11.8,21.8,12.3z"/>
			<path class="st4" d="M27.7,13.6c-0.3,0.2-0.7,0.3-1,0.4c-0.3,0.1-0.6,0.1-1,0.1s-0.8-0.1-1.2-0.2s-0.7-0.3-0.9-0.6
				c-0.3-0.3-0.5-0.6-0.6-1s-0.2-0.9-0.2-1.4c0-1,0.3-1.8,0.8-2.3c0.5-0.6,1.3-0.8,2.1-0.8c0.3,0,0.7,0,1,0.1s0.6,0.2,0.9,0.4v1.1
				h-0.1c-0.3-0.2-0.6-0.4-1-0.6c-0.3-0.1-0.6-0.2-1-0.2c-0.6,0-1,0.2-1.4,0.6c-0.3,0.4-0.5,1-0.5,1.7s0.2,1.3,0.5,1.7
				s0.8,0.6,1.4,0.6c0.2,0,0.4,0,0.6-0.1s0.4-0.1,0.6-0.2c0.1-0.1,0.3-0.2,0.4-0.2s0.2-0.2,0.3-0.2h0.1v1.1H27.7z"/>
			<path class="st4" d="M33.9,14h-1v-0.7c-0.3,0.3-0.7,0.5-1,0.6s-0.7,0.2-1,0.2c-0.6,0-1.1-0.2-1.5-0.6s-0.5-0.9-0.5-1.7V8h1v3.4
				c0,0.3,0,0.6,0,0.8s0.1,0.4,0.2,0.6c0.1,0.2,0.2,0.3,0.4,0.3s0.4,0.1,0.7,0.1c0.3,0,0.5-0.1,0.9-0.2c0.3-0.1,0.6-0.3,0.9-0.5V8h1
				v6H33.9z"/>
			<path class="st4" d="M40.2,12.3c0,0.5-0.2,1-0.7,1.3c-0.5,0.4-1.1,0.5-1.9,0.5c-0.4,0-0.9-0.1-1.2-0.2c-0.4-0.1-0.7-0.2-0.9-0.3
				v-1.1h0.1c0.3,0.2,0.7,0.4,1.1,0.6s0.8,0.2,1.1,0.2c0.4,0,0.8-0.1,1-0.2s0.4-0.4,0.4-0.7c0-0.2-0.1-0.4-0.2-0.5s-0.4-0.2-0.8-0.3
				c-0.1,0-0.3-0.1-0.6-0.1c-0.2,0-0.4-0.1-0.6-0.1c-0.5-0.1-0.9-0.3-1.1-0.6c-0.2-0.3-0.3-0.6-0.3-1c0-0.2,0.1-0.5,0.2-0.7
				c0.1-0.2,0.3-0.4,0.5-0.6c0.2-0.2,0.5-0.3,0.8-0.4C37.4,8,37.8,8,38.1,8c0.4,0,0.7,0,1.1,0.1c0.4,0.1,0.7,0.2,0.9,0.3v1.1H40
				c-0.3-0.3-0.7-0.5-1-0.6s-0.7-0.2-1.1-0.2c-0.4,0-0.7,0.1-0.9,0.2s-0.4,0.4-0.4,0.6c0,0.2,0.1,0.4,0.2,0.6
				c0.2,0.1,0.4,0.2,0.7,0.3c0.2,0,0.4,0.1,0.6,0.1c0.2,0,0.4,0.1,0.6,0.1c0.5,0.1,0.8,0.3,1.1,0.6C40.1,11.5,40.2,11.8,40.2,12.3z"
				/>
			<path class="st4" d="M45.9,12.3c0,0.5-0.2,1-0.7,1.3c-0.5,0.4-1.1,0.5-1.9,0.5c-0.4,0-0.9-0.1-1.2-0.2c-0.4-0.1-0.7-0.2-0.9-0.3
				v-1.1h0.1c0.3,0.2,0.7,0.4,1.1,0.6s0.8,0.2,1.1,0.2c0.4,0,0.8-0.1,1-0.2s0.4-0.4,0.4-0.7c0-0.2-0.1-0.4-0.2-0.5s-0.4-0.2-0.8-0.3
				c-0.1,0-0.3-0.1-0.6-0.1c-0.2,0-0.4-0.1-0.6-0.1c-0.5-0.1-0.9-0.3-1.1-0.6c-0.2-0.3-0.3-0.6-0.3-1c0-0.2,0.1-0.5,0.2-0.7
				c0.1-0.2,0.3-0.4,0.5-0.6c0.2-0.2,0.5-0.3,0.8-0.4C43.1,8,43.5,8,43.8,8c0.4,0,0.7,0,1.1,0.1c0.4,0.1,0.7,0.2,0.9,0.3v1.1h-0.1
				c-0.3-0.2-0.6-0.4-0.9-0.5S44,8.7,43.6,8.7s-0.7,0.1-0.9,0.2s-0.4,0.4-0.4,0.6c0,0.2,0.1,0.4,0.2,0.6c0.2,0.1,0.4,0.2,0.7,0.3
				c0.2,0,0.4,0.1,0.6,0.1c0.2,0,0.4,0.1,0.6,0.1c0.5,0.1,0.8,0.3,1.1,0.6C45.8,11.5,45.9,11.8,45.9,12.3z"/>
		</g>
		<g class="st2">
			<path class="st3" d="M63.1,12c0,1-0.3,1.7-0.8,2.3s-1.2,0.8-2,0.8s-1.5-0.3-2-0.8c-0.5-0.6-0.7-1.3-0.7-2.3s0.2-1.8,0.7-2.3
				c0.5-0.6,1.2-0.9,2-0.9s1.5,0.3,2,0.9S63.1,11,63.1,12z M62.1,12c0-0.8-0.2-1.4-0.5-1.7s-0.7-0.6-1.3-0.6c-0.5,0-1,0.2-1.3,0.6
				c-0.3,0.4-0.5,1-0.5,1.7c0,0.8,0.2,1.3,0.5,1.7s0.7,0.6,1.3,0.6c0.5,0,1-0.2,1.3-0.6C61.9,13.3,62.1,12.8,62.1,12z"/>
			<path class="st3" d="M69.7,15h-1v-3.4c0-0.3,0-0.5,0-0.8c0-0.2-0.1-0.4-0.2-0.6c-0.1-0.2-0.2-0.3-0.4-0.3s-0.4-0.1-0.7-0.1
				c-0.3,0-0.6,0.1-0.9,0.2c-0.3,0.1-0.6,0.3-0.9,0.5V15h-1V9h1v0.7c0.3-0.3,0.6-0.5,1-0.6c0.3-0.1,0.7-0.2,1-0.2
				c0.6,0,1.1,0.2,1.5,0.6c0.3,0.4,0.5,1,0.5,1.7L69.7,15L69.7,15z"/>
			<path class="st3" d="M81.7,15h-1.3l-3.8-7.2V15h-1V7h1.6l3.5,6.5V7h1C81.7,7,81.7,15,81.7,15z"/>
			<path class="st3" d="M88.8,12.1h-4.4c0,0.4,0.1,0.7,0.2,1s0.3,0.5,0.5,0.7s0.4,0.3,0.7,0.4c0.3,0.1,0.5,0.1,0.8,0.1
				c0.4,0,0.8-0.1,1.2-0.2c0.4-0.2,0.7-0.3,0.9-0.5h0.1v1.1c-0.3,0.1-0.7,0.3-1,0.4c-0.4,0.1-0.7,0.1-1.1,0.1c-1,0-1.8-0.3-2.3-0.8
				S83.3,13,83.3,12s0.3-1.8,0.8-2.3c0.5-0.6,1.2-0.9,2.1-0.9c0.8,0,1.4,0.2,1.9,0.7s0.7,1.1,0.7,2V12.1z M87.8,11.3
				c0-0.5-0.1-0.9-0.4-1.2s-0.7-0.4-1.2-0.4s-1,0.2-1.3,0.5s-0.5,0.7-0.5,1.2h3.4V11.3z"/>
			<path class="st3" d="M94.1,10.1L94.1,10.1c-0.2,0-0.4-0.1-0.5-0.1s-0.3,0-0.5,0c-0.3,0-0.6,0.1-0.9,0.2s-0.6,0.3-0.8,0.5V15h-1V9
				h1v0.9c0.4-0.3,0.8-0.6,1.1-0.7C92.7,9.1,93,9,93.3,9c0.2,0,0.3,0,0.4,0s0.2,0,0.4,0.1C94.1,9.1,94.1,10.1,94.1,10.1z"/>
			<path class="st3" d="M100.2,9l-2.4,6h-1l-2.4-6h1.1l1.9,4.8L99.1,9H100.2z"/>
			<path class="st3" d="M106.5,12c0,1-0.2,1.7-0.8,2.3c-0.5,0.6-1.2,0.8-2,0.8s-1.5-0.3-2-0.8c-0.5-0.6-0.7-1.3-0.7-2.3
				s0.2-1.8,0.7-2.3c0.5-0.6,1.2-0.9,2-0.9s1.5,0.3,2,0.9C106.3,10.3,106.5,11,106.5,12z M105.5,12c0-0.8-0.2-1.4-0.5-1.7
				c-0.3-0.4-0.7-0.6-1.3-0.6c-0.5,0-1,0.2-1.3,0.6c-0.3,0.4-0.5,1-0.5,1.7c0,0.8,0.2,1.3,0.5,1.7s0.7,0.6,1.3,0.6
				c0.5,0,1-0.2,1.3-0.6C105.3,13.3,105.5,12.8,105.5,12z"/>
			<path class="st3" d="M112.4,13.3c0,0.5-0.2,1-0.7,1.3c-0.5,0.4-1.1,0.5-1.9,0.5c-0.4,0-0.9-0.1-1.2-0.2c-0.4-0.1-0.7-0.2-0.9-0.3
				v-1.1h0.1c0.3,0.2,0.7,0.4,1.1,0.6c0.4,0.1,0.8,0.2,1.1,0.2c0.4,0,0.8-0.1,1-0.2c0.2-0.1,0.4-0.4,0.4-0.7c0-0.2-0.1-0.4-0.2-0.5
				s-0.4-0.2-0.8-0.3c-0.1,0-0.3-0.1-0.6-0.1c-0.2,0-0.4-0.1-0.6-0.1c-0.5-0.1-0.9-0.3-1.1-0.6s-0.3-0.6-0.3-1
				c0-0.2,0.1-0.5,0.2-0.7s0.3-0.4,0.5-0.6c0.2-0.2,0.5-0.3,0.8-0.4s0.7-0.1,1-0.1c0.4,0,0.7,0,1.1,0.1s0.7,0.2,0.9,0.3v1.1h-0.1
				c-0.3-0.2-0.6-0.4-0.9-0.5c-0.4-0.1-0.7-0.2-1.1-0.2s-0.7,0.1-0.9,0.2c-0.3,0.1-0.4,0.4-0.4,0.6c0,0.2,0.1,0.4,0.2,0.6
				c0.2,0.1,0.4,0.2,0.7,0.3c0.2,0,0.4,0.1,0.6,0.1s0.4,0.1,0.6,0.1c0.5,0.1,0.8,0.3,1.1,0.6C112.3,12.5,112.4,12.8,112.4,13.3z"/>
			<path class="st3" d="M123.5,7.9h-2.9V15h-1.1V7.9h-2.9V7h6.8L123.5,7.9L123.5,7.9z"/>
			<path class="st3" d="M127.8,15h-1v-0.6c-0.1,0.1-0.2,0.1-0.4,0.3c-0.2,0.1-0.3,0.2-0.4,0.3c-0.2,0.1-0.4,0.2-0.6,0.2
				c-0.2,0.1-0.5,0.1-0.8,0.1c-0.5,0-1-0.2-1.4-0.5c-0.4-0.4-0.6-0.8-0.6-1.4c0-0.5,0.1-0.8,0.3-1.1c0.2-0.3,0.5-0.5,0.8-0.7
				c0.4-0.2,0.8-0.3,1.3-0.3c0.5-0.1,1.1-0.1,1.6-0.1V11c0-0.2,0-0.4-0.1-0.6c-0.1-0.2-0.2-0.3-0.3-0.4c-0.1-0.1-0.3-0.1-0.5-0.2
				c-0.2,0-0.4,0-0.6,0c-0.3,0-0.6,0-0.9,0.1s-0.7,0.2-1,0.3h-0.1v-1c0.2-0.1,0.5-0.1,0.9-0.2c0.4-0.1,0.7-0.1,1.1-0.1
				s0.8,0,1.1,0.1c0.3,0.1,0.6,0.2,0.8,0.4c0.2,0.2,0.4,0.4,0.5,0.6c0.1,0.3,0.2,0.6,0.2,1L127.8,15L127.8,15z M126.8,13.5v-1.7
				c-0.3,0-0.7,0-1.1,0.1c-0.4,0-0.7,0.1-1,0.2c-0.3,0.1-0.5,0.2-0.7,0.4s-0.3,0.4-0.3,0.7s0.1,0.6,0.3,0.8c0.2,0.2,0.5,0.3,1,0.3
				c0.4,0,0.7-0.1,1-0.2C126.3,13.9,126.6,13.7,126.8,13.5z"/>
			<path class="st3" d="M130.8,15h-1V6.6h1V15z"/>
			<path class="st3" d="M138.2,15h-1.3l-2.4-2.6l-0.7,0.6v2h-1V6.6h1V12l2.9-3h1.3l-2.8,2.8L138.2,15z"/>
		</g>
		<g class="st2">
			<path class="st4" d="M63.1,11c0,1-0.3,1.7-0.8,2.3s-1.2,0.8-2,0.8s-1.5-0.3-2-0.8c-0.5-0.6-0.7-1.3-0.7-2.3s0.2-1.8,0.7-2.3
				c0.5-0.6,1.2-0.9,2-0.9s1.5,0.3,2,0.9S63.1,10,63.1,11z M62.1,11c0-0.8-0.2-1.4-0.5-1.7s-0.7-0.6-1.3-0.6c-0.5,0-1,0.2-1.3,0.6
				c-0.3,0.4-0.5,1-0.5,1.7c0,0.8,0.2,1.3,0.5,1.7s0.7,0.6,1.3,0.6c0.5,0,1-0.2,1.3-0.6C61.9,12.3,62.1,11.8,62.1,11z"/>
			<path class="st4" d="M69.7,14h-1v-3.4c0-0.3,0-0.5,0-0.8c0-0.2-0.1-0.4-0.2-0.6c-0.1-0.2-0.2-0.3-0.4-0.3s-0.4-0.1-0.7-0.1
				c-0.3,0-0.6,0.1-0.9,0.2c-0.3,0.1-0.6,0.3-0.9,0.5V14h-1V8h1v0.7c0.3-0.3,0.6-0.5,1-0.6c0.3-0.1,0.7-0.2,1-0.2
				c0.6,0,1.1,0.2,1.5,0.6c0.3,0.4,0.5,1,0.5,1.7L69.7,14L69.7,14z"/>
			<path class="st4" d="M81.7,14h-1.3l-3.8-7.2V14h-1V6h1.6l3.5,6.5V6h1C81.7,6,81.7,14,81.7,14z"/>
			<path class="st4" d="M88.8,11.1h-4.4c0,0.4,0.1,0.7,0.2,1s0.3,0.5,0.5,0.7s0.4,0.3,0.7,0.4c0.3,0.1,0.5,0.1,0.8,0.1
				c0.4,0,0.8-0.1,1.2-0.2c0.4-0.2,0.7-0.3,0.9-0.5h0.1v1.1c-0.3,0.1-0.7,0.3-1,0.4c-0.4,0.1-0.7,0.1-1.1,0.1c-1,0-1.8-0.3-2.3-0.8
				S83.3,12,83.3,11s0.3-1.8,0.8-2.3c0.5-0.6,1.2-0.9,2.1-0.9c0.8,0,1.4,0.2,1.9,0.7s0.7,1.1,0.7,2V11.1z M87.8,10.3
				c0-0.5-0.1-0.9-0.4-1.2s-0.7-0.4-1.2-0.4s-1,0.2-1.3,0.5s-0.5,0.7-0.5,1.2h3.4V10.3z"/>
			<path class="st4" d="M94.1,9.1L94.1,9.1c-0.2,0-0.4-0.1-0.5-0.1s-0.3,0-0.5,0c-0.3,0-0.6,0.1-0.9,0.2s-0.6,0.3-0.8,0.5V14h-1V8h1
				v0.9c0.4-0.3,0.8-0.6,1.1-0.7C92.7,8.1,93,8,93.3,8c0.2,0,0.3,0,0.4,0s0.2,0,0.4,0.1C94.1,8.1,94.1,9.1,94.1,9.1z"/>
			<path class="st4" d="M100.2,8l-2.4,6h-1l-2.4-6h1.1l1.9,4.8L99.1,8H100.2z"/>
			<path class="st4" d="M106.5,11c0,1-0.2,1.7-0.8,2.3c-0.5,0.6-1.2,0.8-2,0.8s-1.5-0.3-2-0.8c-0.5-0.6-0.7-1.3-0.7-2.3
				s0.2-1.8,0.7-2.3c0.5-0.6,1.2-0.9,2-0.9s1.5,0.3,2,0.9C106.3,9.3,106.5,10,106.5,11z M105.5,11c0-0.8-0.2-1.4-0.5-1.7
				c-0.3-0.4-0.7-0.6-1.3-0.6c-0.5,0-1,0.2-1.3,0.6c-0.3,0.4-0.5,1-0.5,1.7c0,0.8,0.2,1.3,0.5,1.7s0.7,0.6,1.3,0.6
				c0.5,0,1-0.2,1.3-0.6C105.3,12.3,105.5,11.8,105.5,11z"/>
			<path class="st4" d="M112.4,12.3c0,0.5-0.2,1-0.7,1.3c-0.5,0.4-1.1,0.5-1.9,0.5c-0.4,0-0.9-0.1-1.2-0.2c-0.4-0.1-0.7-0.2-0.9-0.3
				v-1.1h0.1c0.3,0.2,0.7,0.4,1.1,0.6c0.4,0.1,0.8,0.2,1.1,0.2c0.4,0,0.8-0.1,1-0.2c0.2-0.1,0.4-0.4,0.4-0.7c0-0.2-0.1-0.4-0.2-0.5
				s-0.4-0.2-0.8-0.3c-0.1,0-0.3-0.1-0.6-0.1c-0.2,0-0.4-0.1-0.6-0.1c-0.5-0.1-0.9-0.3-1.1-0.6s-0.3-0.6-0.3-1
				c0-0.2,0.1-0.5,0.2-0.7s0.3-0.4,0.5-0.6c0.2-0.2,0.5-0.3,0.8-0.4s0.7-0.1,1-0.1c0.4,0,0.7,0,1.1,0.1c0.4,0.1,0.7,0.2,0.9,0.3v1.1
				h-0.1c-0.3-0.2-0.6-0.4-0.9-0.5c-0.4-0.1-0.7-0.2-1.1-0.2s-0.7,0.1-0.9,0.2c-0.3,0.1-0.4,0.4-0.4,0.6c0,0.2,0.1,0.4,0.2,0.6
				c0.2,0.1,0.4,0.2,0.7,0.3c0.2,0,0.4,0.1,0.6,0.1s0.4,0.1,0.6,0.1c0.5,0.1,0.8,0.3,1.1,0.6C112.3,11.5,112.4,11.8,112.4,12.3z"/>
			<path class="st4" d="M123.5,6.9h-2.9V14h-1.1V6.9h-2.9V6h6.8L123.5,6.9L123.5,6.9z"/>
			<path class="st4" d="M127.8,14h-1v-0.6c-0.1,0.1-0.2,0.1-0.4,0.3c-0.2,0.1-0.3,0.2-0.4,0.3c-0.2,0.1-0.4,0.2-0.6,0.2
				c-0.2,0.1-0.5,0.1-0.8,0.1c-0.5,0-1-0.2-1.4-0.5c-0.4-0.4-0.6-0.8-0.6-1.4c0-0.5,0.1-0.8,0.3-1.1c0.2-0.3,0.5-0.5,0.8-0.7
				c0.4-0.2,0.8-0.3,1.3-0.3c0.5-0.1,1.1-0.1,1.6-0.1V9.9c0-0.2,0-0.4-0.1-0.6c-0.1-0.2-0.2-0.3-0.3-0.4c-0.1-0.1-0.3-0.1-0.5-0.2
				c-0.2,0-0.4,0-0.6,0c-0.3,0-0.6,0-0.9,0.1s-0.7,0.2-1,0.3h-0.1v-1c0.2-0.1,0.5-0.1,0.9-0.2c0.4-0.1,0.7-0.1,1.1-0.1
				s0.8,0,1.1,0.1c0.3,0.1,0.6,0.2,0.8,0.4c0.2,0.2,0.4,0.4,0.5,0.6c0.1,0.3,0.2,0.6,0.2,1L127.8,14L127.8,14z M126.8,12.5v-1.7
				c-0.3,0-0.7,0-1.1,0.1c-0.4,0-0.7,0.1-1,0.2c-0.3,0.1-0.5,0.2-0.7,0.4s-0.3,0.4-0.3,0.7s0.1,0.6,0.3,0.8c0.2,0.2,0.5,0.3,1,0.3
				c0.4,0,0.7-0.1,1-0.2C126.3,12.9,126.6,12.7,126.8,12.5z"/>
			<path class="st4" d="M130.8,14h-1V5.6h1V14z"/>
			<path class="st4" d="M138.2,14h-1.3l-2.4-2.6l-0.7,0.6v2h-1V5.6h1V11l2.9-3h1.3l-2.8,2.8L138.2,14z"/>
		</g>
	</g>
	
		<linearGradient id="SVGID_5_" gradientUnits="userSpaceOnUse" x1="-2632.5068" y1="471.6487" x2="-2632.5068" y2="470.6487" gradientTransform="matrix(116 0 0 -20 305443.3438 9433)">
		<stop  offset="0" style="stop-color:#BBBBBB;stop-opacity:0.1"/>
		<stop  offset="1" style="stop-color:#000000;stop-opacity:0.1"/>
	</linearGradient>
	<path class="st5" d="M0,0h145.1v20H0V0z"/>
</g>
</svg>
